<?xml version="1.0" encoding="utf-8"?>
<!-- Generator: Adobe Illustrator 14.0.0, SVG Export Plug-In  -->
<!DOCTYPE svg PUBLIC "-//W3C//DTD SVG 1.1//EN" "http://www.w3.org/Graphics/SVG/1.1/DTD/svg11.dtd" [
	<!ENTITY ns_flows "http://ns.adobe.com/Flows/1.0/">
]>
<svg version="1.1"
	 xmlns="http://www.w3.org/2000/svg" xmlns:xlink="http://www.w3.org/1999/xlink" xmlns:a="http://ns.adobe.com/AdobeSVGViewerExtensions/3.0/"
	 x="0px" y="0px" width="458px" height="250px" viewBox="0 -0.583 458 250" style="enable-background:new 0 -0.583 458 250;"
	 xml:space="preserve">
<defs>
</defs>
<path style="opacity:0.7;fill:#8C8C8C;" d="M458,244.5c0,6.352-102.526,4.5-229,4.5c-79.805,0-229,1.852-229-4.5
	S102.527,233,229,233C355.474,233,458,238.149,458,244.5z"/>
<path style="fill:#353535;" d="M429,225.401c0,2.539-2.239,4.6-5,4.6H34c-2.762,0-5-2.061-5-4.6V4.6C29,2.06,31.238,0,34,0h390
	c2.761,0,5,2.06,5,4.6V225.401z"/>
<path style="fill:#D3D3D3;" d="M439,244.5H19L9,226.899c0-0.607,0.493-1.098,1.1-1.098h437.8c0.609,0,1.101,0.49,1.101,1.098
	L439,244.5z"/>
<path style="fill:#B2B2B2;" d="M255.013,232.448h-52.024l-1.239-6.207c0-0.213,0.062-0.387,0.135-0.387h54.229
	c0.074,0,0.136,0.174,0.136,0.387L255.013,232.448z"/>
<path style="fill:#F9F9F9;" d="M414,213.09c0,0.504-0.447,0.91-1,0.91H45c-0.552,0-1-0.406-1-0.91V14.909C44,14.407,44.448,14,45,14
	h368c0.553,0,1,0.406,1,0.908V213.09z"/>
<path style="opacity:0.26;fill:#E5E5E5;" d="M413,214.09c0,0.504-0.447,0.91-1,0.91H179L412,15c0.553,0,1,0.407,1,0.909V214.09z"/>
</svg>
